<svg xmlns="http://www.w3.org/2000/svg" data-name="Layer 1" viewBox="0 0 25 31.25" x="0px" y="0px"><title>Air Pressure</title><path d="M9.5,16h8a2.5,2.5,0,0,0,0-5,.5.5,0,0,0,0,1,1.5,1.5,0,0,1,0,3h-8a.5.5,0,0,0,0,1Z"/><path d="M7.5,18h11a.5.5,0,0,0,0-1H7.5a1.5,1.5,0,0,1,0-3,.5.5,0,0,0,0-1,2.5,2.5,0,0,0,0,5Z"/><path d="M20,19H5a.5.5,0,0,0,0,1H20a.5.5,0,0,0,0-1Z"/><path d="M12.15,13.85a.36.36,0,0,0,.16.11.47.47,0,0,0,.38,0h0a.53.53,0,0,0,.15-.11l2-2a.49.49,0,0,0-.7-.7L13,12.29V8.5a.5.5,0,0,0-1,0v3.79l-1.15-1.14a.49.49,0,0,0-.7.7Z"/><text x="0" y="40" fill="#000000" font-size="5px" font-weight="bold" font-family="'Helvetica Neue', Helvetica, Arial-Unicode, Arial, Sans-serif">Created by notplayink!</text><text x="0" y="45" fill="#000000" font-size="5px" font-weight="bold" font-family="'Helvetica Neue', Helvetica, Arial-Unicode, Arial, Sans-serif">from the Noun Project</text></svg>